<svg width="570" height="495" viewBox="0 0 570 495" fill="none" xmlns="http://www.w3.org/2000/svg">
<path fill-rule="evenodd" clip-rule="evenodd" d="M200.556 328.478L250.335 376.693C265.153 391.046 255.042 416.142 234.413 416.214L73.4868 416.775C55.721 416.837 44.5957 397.592 53.5158 382.228L110.734 283.673C111.022 283.178 111.324 282.698 111.641 282.234L135.913 240.514L136.053 240.801C129.389 249.767 130.093 262.757 138.689 270.903L192.292 321.701L192.061 320.635L200.556 328.478Z" fill="#212322"/>
<path d="M176.609 249.536L192.292 321.701L138.689 270.903C128.426 261.178 129.413 244.549 140.754 236.105C154.035 226.218 173.093 233.357 176.609 249.536Z" fill="#191C1A"/>
<path d="M143.998 373.997L134.136 345.361C137.929 345.361 138.688 336.807 132.998 336.807C132.998 333.535 132.998 330.237 132.998 328.997" stroke="white" stroke-width="3" stroke-linecap="round" stroke-linejoin="round"/>
<path d="M121.998 373.997L131.86 345.361C128.067 345.361 127.308 336.807 132.998 336.807C132.998 333.535 132.998 330.237 132.998 328.997" stroke="white" stroke-width="3" stroke-linecap="round" stroke-linejoin="round"/>
<path d="M150.998 379.993C139.323 379.993 121.998 380.371 121.998 374.321C121.998 368.272 143.089 369.028 147.608 369.028" stroke="white" stroke-width="3" stroke-linecap="round" stroke-linejoin="round"/>
<path fill-rule="evenodd" clip-rule="evenodd" d="M279.027 165.763L212.381 184.766C192.543 190.422 175.864 169.118 186.116 151.217L266.093 11.5696C274.922 -3.84699 297.152 -3.85892 305.998 11.5482L362.739 110.378C363.024 110.874 363.289 111.376 363.533 111.883L387.527 153.763L387.208 153.741C382.775 143.487 371.174 137.601 359.821 140.973L289.027 161.995L290.066 162.328L279.027 165.763Z" fill="#062B31"/>
<path d="M359.365 184.496L289.027 161.995L359.821 140.973C373.375 136.948 387.282 146.117 388.924 160.16C390.846 176.605 375.135 189.54 359.365 184.496Z" fill="#02161A"/>
<path d="M297 103L287.138 74.3636C290.931 74.3636 291.69 65.8099 286 65.8099C286 62.5372 286 59.2397 286 58" stroke="white" stroke-width="3" stroke-linecap="round" stroke-linejoin="round"/>
<path d="M275 103L284.862 74.3636C281.069 74.3636 280.31 65.8099 286 65.8099C286 62.5372 286 59.2397 286 58" stroke="white" stroke-width="3" stroke-linecap="round" stroke-linejoin="round"/>
<path d="M304 108.995C292.325 108.995 275 109.373 275 103.324C275 97.2748 296.091 98.0302 300.61 98.0302" stroke="white" stroke-width="3" stroke-linecap="round" stroke-linejoin="round"/>
<path fill-rule="evenodd" clip-rule="evenodd" d="M377.548 312.912L394.415 245.694C399.435 225.685 426.225 221.893 436.602 239.722L517.551 378.808C526.488 394.162 515.383 413.42 497.617 413.377L383.657 413.102C383.085 413.1 382.518 413.078 381.957 413.036L333.691 412.876L333.87 412.611C344.966 413.899 355.864 406.795 358.621 395.277L375.811 323.457L375.004 324.19L377.548 312.912Z" fill="#887549"/>
<path d="M321.157 373.121L375.811 323.457L358.621 395.277C355.33 409.027 340.435 416.487 327.452 410.887C312.249 404.329 308.903 384.255 321.157 373.121Z" fill="#64532B"/>
<path d="M446 362.999L436.138 334.363C439.931 334.363 440.689 325.809 435 325.809C435 322.536 435 319.239 435 317.999" stroke="white" stroke-width="3" stroke-linecap="round" stroke-linejoin="round"/>
<path d="M424 362.999L433.862 334.363C430.069 334.363 429.31 325.809 435 325.809C435 322.536 435 319.239 435 317.999" stroke="white" stroke-width="3" stroke-linecap="round" stroke-linejoin="round"/>
<path d="M453 368.994C441.324 368.994 424 369.372 424 363.323C424 357.274 445.091 358.029 449.61 358.029" stroke="white" stroke-width="3" stroke-linecap="round" stroke-linejoin="round"/>
</svg>
