<svg width="81" height="35" viewBox="0 0 81 35" fill="none" xmlns="http://www.w3.org/2000/svg">
<path d="M36.6347 4.61164V3.23434H41.8039V4.61164L38.5441 9.43994V9.64112H41.8039V11.0184H36.6347V9.6566L39.8946 4.81282V4.61164H36.6347ZM43.3563 11.0184L45.1104 3.23434H48.1219L49.876 11.0184H48.2926L47.9822 9.61017H45.2501L44.9396 11.0184H43.3563ZM46.3522 4.53427L45.5606 8.23287H47.7028L46.9111 4.53427H46.3522ZM51.6146 11.0184V3.23434H53.198V11.0184H51.6146ZM58.1343 11.0184H55.5109V3.23434H58.1343C58.8018 3.23434 59.3607 3.31172 59.7953 3.45099C60.23 3.59027 60.5715 3.8224 60.8043 4.14738C61.0527 4.47237 61.2079 4.85925 61.3011 5.29256C61.3942 5.72587 61.4408 6.29845 61.4408 7.01032C61.4408 7.70671 61.3942 8.29477 61.3166 8.75903C61.239 9.22329 61.0682 9.62564 60.8354 9.99705C60.6025 10.353 60.261 10.6161 59.8264 10.7863C59.3917 10.941 58.8329 11.0184 58.1343 11.0184ZM59.8108 7.92336C59.8264 7.67576 59.8264 7.3353 59.8264 6.91747C59.8264 6.48416 59.8108 6.1437 59.7798 5.88062C59.7488 5.61754 59.6711 5.38541 59.5625 5.16876C59.4538 4.9521 59.2831 4.81282 59.0502 4.73545C58.8174 4.65807 58.5224 4.61164 58.1343 4.61164H57.0943V9.6566H58.1343C58.7087 9.6566 59.1278 9.51732 59.3917 9.22329C59.609 8.97568 59.7488 8.54237 59.8108 7.92336ZM37.0073 21.0774V13.2933H42.0678V14.6706H38.6062V16.4967H41.3848V17.843H38.6062V19.7155H42.0678V21.0929H37.0073V21.0774ZM45.3277 13.2933L46.7714 16.1562L48.2461 13.2933H49.8915L47.6562 17.2704L49.9071 21.0774H48.1529L46.7093 18.3847L45.2346 21.0774H43.5891L45.84 17.3478L43.5891 13.2933H45.3277ZM56.256 20.9536C55.4488 21.1238 54.7192 21.2167 54.0673 21.2167C53.4153 21.2167 52.903 21.1393 52.4994 20.969C52.1113 20.8143 51.8009 20.5512 51.5836 20.1953C51.3662 19.8394 51.211 19.437 51.1179 18.9573C51.0402 18.4775 50.9937 17.8895 50.9937 17.1776C50.9937 15.6765 51.211 14.6242 51.6301 14.0361C52.0493 13.448 52.8409 13.154 53.9741 13.154C54.6261 13.154 55.4023 13.2623 56.256 13.4635L56.2095 14.717C55.4488 14.6087 54.8279 14.5468 54.3156 14.5468C53.8189 14.5468 53.4619 14.6087 53.2445 14.748C53.0272 14.8873 52.872 15.1349 52.7633 15.5063C52.6547 15.8777 52.6081 16.5122 52.6081 17.4252C52.6081 18.3228 52.7168 18.9573 52.9186 19.2977C53.1359 19.6382 53.555 19.8239 54.1759 19.8239C54.8124 19.8239 55.4799 19.7775 56.1939 19.6691L56.256 20.9536ZM58.1343 21.0774V13.2933H63.1949V14.6706H59.7332V16.4967H62.5119V17.843H59.7332V19.7155H63.1949V21.0929H58.1343V21.0774ZM69.6215 21.0774H65.1819V13.2933H66.7497V19.6846H69.606V21.0774H69.6215ZM39.6462 31.1363H37.0228V23.3522H39.6462C40.3137 23.3522 40.8726 23.4296 41.3072 23.5689C41.7419 23.7082 42.0834 23.9403 42.3162 24.2653C42.5646 24.5903 42.7198 24.9772 42.813 25.4105C42.9061 25.8438 42.9527 26.4164 42.9527 27.1282C42.9527 27.8246 42.9061 28.4127 42.8285 28.8769C42.7509 29.3412 42.5801 29.7436 42.3473 30.115C42.1144 30.4709 41.7729 30.734 41.3383 30.9042C40.8881 31.059 40.3292 31.1363 39.6462 31.1363ZM41.3072 28.0413C41.3227 27.7937 41.3227 27.4532 41.3227 27.0354C41.3227 26.6021 41.3072 26.2616 41.2762 25.9985C41.2451 25.7354 41.1675 25.5033 41.0588 25.2867C40.9502 25.07 40.7794 24.9307 40.5466 24.8534C40.3137 24.776 40.0188 24.7296 39.6307 24.7296H38.5906V29.7745H39.6307C40.2051 29.7745 40.6242 29.6352 40.8881 29.3412C41.1209 29.0936 41.2451 28.6603 41.3072 28.0413ZM44.9862 31.1363V23.3522H50.0468V24.7296H46.5696V26.5556H49.3637V27.902H46.5696V29.7745H50.0312V31.1518H44.9862V31.1363ZM54.4864 24.5903C53.6481 24.5903 53.229 24.8688 53.229 25.4105C53.229 25.6581 53.3377 25.8438 53.5395 25.9676C53.7413 26.0914 54.238 26.2771 54.9987 26.5247C55.7593 26.7723 56.2871 27.0508 56.5975 27.3604C56.908 27.6699 57.0632 28.1496 57.0632 28.7841C57.0632 29.6043 56.8149 30.2233 56.3181 30.6411C55.8214 31.059 55.1694 31.2756 54.3622 31.2756C53.7723 31.2756 53.0272 31.1828 52.1734 30.9971L51.7543 30.9197L51.9095 29.6971C52.9341 29.8364 53.7258 29.8983 54.2691 29.8983C55.0763 29.8983 55.4799 29.5578 55.4799 28.8924C55.4799 28.6448 55.3867 28.4591 55.2005 28.3198C55.0142 28.1805 54.6416 28.0258 54.0828 27.871C53.198 27.6234 52.5615 27.3139 52.2045 26.9735C51.8475 26.633 51.6612 26.1378 51.6612 25.5188C51.6612 24.745 51.894 24.157 52.3752 23.7856C52.8565 23.3987 53.5084 23.213 54.3312 23.213C54.9055 23.213 55.6196 23.2903 56.4889 23.4451L56.908 23.5225L56.7838 24.776C55.6972 24.6522 54.9366 24.5903 54.4864 24.5903ZM58.9881 31.1363V23.3522H60.5715V31.1363H58.9881ZM66.2064 28.3508V26.9735H68.4883V31.0125C67.3862 31.1828 66.5013 31.2756 65.8183 31.2756C64.6075 31.2756 63.7693 30.9506 63.3036 30.3007C62.8534 29.6507 62.6205 28.6139 62.6205 27.2056C62.6205 25.7973 62.8534 24.776 63.3346 24.1415C63.8158 23.5225 64.623 23.1975 65.7562 23.1975C66.4703 23.1975 67.2309 23.2749 68.0692 23.4451L68.4883 23.5225L68.4417 24.745C67.5259 24.6522 66.7652 24.5903 66.1909 24.5903C65.601 24.5903 65.1974 24.6522 64.949 24.7915C64.7162 24.9307 64.5299 25.1783 64.4212 25.5497C64.3126 25.9212 64.2505 26.5556 64.2505 27.4532C64.2505 28.3508 64.3591 28.9853 64.5765 29.3412C64.7938 29.6971 65.2595 29.8828 65.958 29.8828L66.9049 29.8364V28.3198H66.2064V28.3508ZM70.6616 31.1363V23.3522H73.3315L75.2099 29.759H75.3185V23.3522H76.9019V31.1363H74.294L72.3381 24.7296H72.2294V31.1363H70.6616ZM78.3921 23.213H79.4011V23.4451H79.0286V24.42H78.7491V23.4451H78.3921V23.213ZM79.634 23.213H79.9444L80.317 23.9558L80.6895 23.213H81V24.42H80.7516V23.5999L80.4101 24.2962H80.2394L79.8979 23.5999V24.42H79.634V23.213ZM31.6207 3.42004V3.12601H28.4851V0H28.1901V3.12601H24.6819V0H24.3869V3.12601H18.1932V0H17.8982V3.12601H0V3.42004H3.27539V9.59469H0V9.88873H17.1066L3.4151 24.6831H0V24.9772H3.27539V31.1518H0V31.4458H17.9138V34.5718H18.2087V31.4458H24.4025V34.5718H24.6974V31.4458H28.2056V34.5718H28.5006V31.4458H31.6363V31.1518H28.5006V24.9772H31.6363V24.6831H28.5006V9.88873H31.6363V9.59469H28.5006V3.42004H31.6207ZM26.0013 15.8158V24.6831H24.6819V13.6957L28.2056 9.9042V17.6573L26.0013 15.8158ZM24.4025 14.0052V15.9705L18.2087 22.6404V20.706L24.4025 14.0052ZM17.9138 21.0155V24.6831H14.5142L17.9138 21.0155ZM16.6253 31.1518V24.9772H17.9138V31.1518H16.6253ZM24.6974 24.9772H26.0169V31.1518H24.6974V24.9772Z" fill="white"/>
</svg>
