<svg width="30" height="33" viewBox="0 0 30 33" fill="none" xmlns="http://www.w3.org/2000/svg">
<path d="M29.6688 3.17367V2.90082H26.7267V0H26.45V2.90082H23.1583V0H22.8816V2.90082H17.0701V0H16.7934V2.90082H0V3.17367H3.07321V8.9035H0V9.17635H16.0506L3.20429 22.905H0V23.1778H3.07321V28.9077H0V29.1805H16.808V32.0813H17.0847V29.1805H22.8961V32.0813H23.1729V29.1805H26.4645V32.0813H26.7413V29.1805H29.6834V28.9077H26.7413V23.1778H29.6834V22.905H26.7413V9.17635H29.6834V8.9035H26.7413V3.17367H29.6688ZM24.3963 14.6764V22.905H23.1583V12.709L26.4645 9.19071V16.3853L24.3963 14.6764ZM22.8961 12.9962V14.82L17.0847 21.0094V19.2143L22.8961 12.9962ZM16.808 19.5015V22.905H13.6182L16.808 19.5015ZM15.5991 28.9077V23.1778H16.808V28.9077H15.5991ZM23.1729 23.1778H24.4109V28.9077H23.1729V23.1778Z" fill="#212322"/>
</svg>
