<svg width="647" height="465" viewBox="0 0 647 465" fill="none" xmlns="http://www.w3.org/2000/svg">
<path d="M387 201L192.5 358H167" stroke="white"/>
<ellipse opacity="0.2" cx="271.5" cy="149" rx="149.5" ry="149" fill="white"/>
<ellipse opacity="0.2" cx="497.5" cy="149" rx="149.5" ry="149" fill="white"/>
<circle opacity="0.2" cx="388" cy="316" r="149" fill="white"/>
<path d="M201.194 113V96.392H204.53L209.234 110.432L213.938 96.392H217.274V113H215.426V98.36H215.09L210.266 112.4H208.202L203.378 98.36H203.042V113H201.194ZM230.23 104.624V110.768C230.278 111.36 230.742 111.712 231.622 111.824L231.55 113.24C230.286 113.24 229.334 112.92 228.694 112.28C227.254 112.92 225.814 113.24 224.374 113.24C223.27 113.24 222.43 112.928 221.854 112.304C221.278 111.68 220.99 110.784 220.99 109.616C220.99 108.448 221.286 107.592 221.878 107.048C222.47 106.488 223.398 106.144 224.662 106.016L228.43 105.656V104.624C228.43 103.808 228.254 103.224 227.902 102.872C227.55 102.52 227.07 102.344 226.462 102.344C225.182 102.344 223.854 102.424 222.478 102.584L221.734 102.656L221.662 101.288C223.422 100.936 224.982 100.76 226.342 100.76C227.702 100.76 228.686 101.072 229.294 101.696C229.918 102.32 230.23 103.296 230.23 104.624ZM222.838 109.52C222.838 110.992 223.446 111.728 224.662 111.728C225.75 111.728 226.822 111.544 227.878 111.176L228.43 110.984V107.024L224.878 107.36C224.158 107.424 223.638 107.632 223.318 107.984C222.998 108.336 222.838 108.848 222.838 109.52ZM233.302 101H235.27L238.198 105.704L241.126 101H243.094L239.278 106.952L243.07 113H241.102L238.198 108.32L235.27 113H233.302L237.07 107L233.302 101ZM246.073 113V101H247.873V113H246.073ZM246.073 98.288V96.2H247.873V98.288H246.073ZM253.843 113H252.043V101H253.819V101.84C255.019 101.12 256.187 100.76 257.323 100.76C258.811 100.76 259.851 101.168 260.443 101.984C260.971 101.664 261.651 101.384 262.483 101.144C263.331 100.888 264.075 100.76 264.715 100.76C266.315 100.76 267.387 101.192 267.931 102.056C268.491 102.904 268.771 104.44 268.771 106.664V113H266.971V106.712C266.971 105.048 266.811 103.912 266.491 103.304C266.171 102.68 265.491 102.368 264.451 102.368C263.923 102.368 263.379 102.448 262.819 102.608C262.259 102.752 261.827 102.896 261.523 103.04L261.067 103.256C261.275 103.784 261.379 104.952 261.379 106.76V113H259.579V106.808C259.579 105.08 259.419 103.912 259.099 103.304C258.795 102.68 258.115 102.368 257.059 102.368C256.547 102.368 256.019 102.448 255.475 102.608C254.947 102.752 254.539 102.896 254.251 103.04L253.843 103.256V113ZM272.826 113V101H274.626V113H272.826ZM272.826 98.288V96.2H274.626V98.288H272.826ZM282.564 102.368C280.82 102.368 279.948 102.976 279.948 104.192C279.948 104.752 280.148 105.152 280.548 105.392C280.948 105.616 281.86 105.856 283.284 106.112C284.708 106.352 285.716 106.696 286.308 107.144C286.9 107.592 287.196 108.432 287.196 109.664C287.196 110.896 286.796 111.8 285.996 112.376C285.212 112.952 284.06 113.24 282.54 113.24C281.548 113.24 280.38 113.128 279.036 112.904L278.316 112.784L278.412 111.224C280.236 111.496 281.612 111.632 282.54 111.632C283.468 111.632 284.172 111.488 284.652 111.2C285.148 110.896 285.396 110.4 285.396 109.712C285.396 109.008 285.188 108.536 284.772 108.296C284.356 108.04 283.444 107.8 282.036 107.576C280.628 107.352 279.628 107.024 279.036 106.592C278.444 106.16 278.148 105.36 278.148 104.192C278.148 103.024 278.556 102.16 279.372 101.6C280.204 101.04 281.236 100.76 282.468 100.76C283.444 100.76 284.668 100.872 286.14 101.096L286.812 101.216L286.764 102.752C284.988 102.496 283.588 102.368 282.564 102.368ZM290.672 113V101H292.472V113H290.672ZM290.672 98.288V96.2H292.472V98.288H290.672ZM298.442 113H296.642V101H298.418V101.84C299.714 101.12 300.954 100.76 302.138 100.76C303.738 100.76 304.81 101.192 305.354 102.056C305.914 102.92 306.194 104.456 306.194 106.664V113H304.418V106.712C304.418 105.048 304.25 103.912 303.914 103.304C303.594 102.68 302.898 102.368 301.826 102.368C301.314 102.368 300.77 102.448 300.194 102.608C299.634 102.752 299.202 102.896 298.898 103.04L298.442 103.256V113ZM314.885 118.64C312.965 118.64 311.621 118.376 310.853 117.848C310.101 117.336 309.725 116.392 309.725 115.016C309.725 114.36 309.869 113.824 310.157 113.408C310.445 113.008 310.933 112.552 311.621 112.04C311.173 111.736 310.949 111.184 310.949 110.384C310.949 110.112 311.149 109.608 311.549 108.872L311.765 108.488C310.501 107.912 309.869 106.704 309.869 104.864C309.869 102.128 311.365 100.76 314.357 100.76C315.125 100.76 315.837 100.84 316.493 101L316.853 101.072L320.405 100.976V102.512L318.125 102.464C318.653 102.992 318.917 103.792 318.917 104.864C318.917 106.368 318.541 107.424 317.789 108.032C317.053 108.624 315.885 108.92 314.285 108.92C313.853 108.92 313.461 108.888 313.109 108.824C312.821 109.528 312.677 109.984 312.677 110.192C312.677 110.688 312.829 111 313.133 111.128C313.437 111.24 314.357 111.296 315.893 111.296C317.429 111.296 318.533 111.536 319.205 112.016C319.877 112.496 320.213 113.432 320.213 114.824C320.213 117.368 318.437 118.64 314.885 118.64ZM311.501 114.872C311.501 115.72 311.733 116.304 312.197 116.624C312.677 116.96 313.549 117.128 314.813 117.128C316.093 117.128 317.005 116.952 317.549 116.6C318.109 116.248 318.389 115.656 318.389 114.824C318.389 114.008 318.189 113.48 317.789 113.24C317.389 113 316.605 112.88 315.437 112.88L312.845 112.76C312.317 113.144 311.957 113.48 311.765 113.768C311.589 114.056 311.501 114.424 311.501 114.872ZM311.669 104.864C311.669 105.808 311.877 106.48 312.293 106.88C312.725 107.28 313.429 107.48 314.405 107.48C315.381 107.48 316.077 107.28 316.493 106.88C316.909 106.48 317.117 105.808 317.117 104.864C317.117 103.904 316.909 103.224 316.493 102.824C316.077 102.424 315.381 102.224 314.405 102.224C313.429 102.224 312.725 102.432 312.293 102.848C311.877 103.248 311.669 103.92 311.669 104.864ZM224.565 139.408H220.341V145H218.493V128.392H224.565C226.373 128.392 227.709 128.832 228.573 129.712C229.437 130.592 229.869 131.936 229.869 133.744C229.869 137.52 228.101 139.408 224.565 139.408ZM220.341 137.776H224.541C226.829 137.776 227.973 136.432 227.973 133.744C227.973 132.464 227.701 131.528 227.157 130.936C226.613 130.328 225.741 130.024 224.541 130.024H220.341V137.776ZM233.271 145V127.768H235.071V145H233.271ZM247.874 136.624V142.768C247.922 143.36 248.386 143.712 249.266 143.824L249.194 145.24C247.93 145.24 246.978 144.92 246.338 144.28C244.898 144.92 243.458 145.24 242.018 145.24C240.914 145.24 240.074 144.928 239.498 144.304C238.922 143.68 238.634 142.784 238.634 141.616C238.634 140.448 238.93 139.592 239.522 139.048C240.114 138.488 241.042 138.144 242.306 138.016L246.074 137.656V136.624C246.074 135.808 245.898 135.224 245.546 134.872C245.194 134.52 244.714 134.344 244.106 134.344C242.826 134.344 241.498 134.424 240.122 134.584L239.378 134.656L239.306 133.288C241.066 132.936 242.626 132.76 243.986 132.76C245.346 132.76 246.33 133.072 246.938 133.696C247.562 134.32 247.874 135.296 247.874 136.624ZM240.482 141.52C240.482 142.992 241.09 143.728 242.306 143.728C243.394 143.728 244.466 143.544 245.522 143.176L246.074 142.984V139.024L242.522 139.36C241.802 139.424 241.282 139.632 240.962 139.984C240.642 140.336 240.482 140.848 240.482 141.52ZM253.945 145H252.145V133H253.921V133.84C255.217 133.12 256.457 132.76 257.641 132.76C259.241 132.76 260.313 133.192 260.857 134.056C261.417 134.92 261.697 136.456 261.697 138.664V145H259.921V138.712C259.921 137.048 259.753 135.912 259.417 135.304C259.097 134.68 258.401 134.368 257.329 134.368C256.817 134.368 256.273 134.448 255.697 134.608C255.137 134.752 254.705 134.896 254.401 135.04L253.945 135.256V145ZM267.556 145H265.756V133H267.532V133.84C268.828 133.12 270.068 132.76 271.252 132.76C272.852 132.76 273.924 133.192 274.468 134.056C275.028 134.92 275.308 136.456 275.308 138.664V145H273.532V138.712C273.532 137.048 273.364 135.912 273.028 135.304C272.708 134.68 272.012 134.368 270.94 134.368C270.428 134.368 269.884 134.448 269.308 134.608C268.748 134.752 268.316 134.896 268.012 135.04L267.556 135.256V145ZM279.367 145V133H281.167V145H279.367ZM279.367 130.288V128.2H281.167V130.288H279.367ZM287.137 145H285.337V133H287.113V133.84C288.409 133.12 289.649 132.76 290.833 132.76C292.433 132.76 293.505 133.192 294.049 134.056C294.609 134.92 294.889 136.456 294.889 138.664V145H293.113V138.712C293.113 137.048 292.945 135.912 292.609 135.304C292.289 134.68 291.593 134.368 290.521 134.368C290.009 134.368 289.465 134.448 288.889 134.608C288.329 134.752 287.897 134.896 287.593 135.04L287.137 135.256V145ZM303.579 150.64C301.659 150.64 300.315 150.376 299.547 149.848C298.795 149.336 298.419 148.392 298.419 147.016C298.419 146.36 298.563 145.824 298.851 145.408C299.139 145.008 299.627 144.552 300.315 144.04C299.867 143.736 299.643 143.184 299.643 142.384C299.643 142.112 299.843 141.608 300.243 140.872L300.459 140.488C299.195 139.912 298.563 138.704 298.563 136.864C298.563 134.128 300.059 132.76 303.051 132.76C303.819 132.76 304.531 132.84 305.187 133L305.547 133.072L309.099 132.976V134.512L306.819 134.464C307.347 134.992 307.611 135.792 307.611 136.864C307.611 138.368 307.235 139.424 306.483 140.032C305.747 140.624 304.579 140.92 302.979 140.92C302.547 140.92 302.155 140.888 301.803 140.824C301.515 141.528 301.371 141.984 301.371 142.192C301.371 142.688 301.523 143 301.827 143.128C302.131 143.24 303.051 143.296 304.587 143.296C306.123 143.296 307.227 143.536 307.899 144.016C308.571 144.496 308.907 145.432 308.907 146.824C308.907 149.368 307.131 150.64 303.579 150.64ZM300.195 146.872C300.195 147.72 300.427 148.304 300.891 148.624C301.371 148.96 302.243 149.128 303.507 149.128C304.787 149.128 305.699 148.952 306.243 148.6C306.803 148.248 307.083 147.656 307.083 146.824C307.083 146.008 306.883 145.48 306.483 145.24C306.083 145 305.299 144.88 304.131 144.88L301.539 144.76C301.011 145.144 300.651 145.48 300.459 145.768C300.283 146.056 300.195 146.424 300.195 146.872ZM300.363 136.864C300.363 137.808 300.571 138.48 300.987 138.88C301.419 139.28 302.123 139.48 303.099 139.48C304.075 139.48 304.771 139.28 305.187 138.88C305.603 138.48 305.811 137.808 305.811 136.864C305.811 135.904 305.603 135.224 305.187 134.824C304.771 134.424 304.075 134.224 303.099 134.224C302.123 134.224 301.419 134.432 300.987 134.848C300.571 135.248 300.363 135.92 300.363 136.864ZM239.246 177L243.806 160.392H247.838L252.398 177H250.574L249.374 172.728H242.27L241.07 177H239.246ZM245.198 161.976L242.678 171.072H248.966L246.446 161.976H245.198ZM255.415 177V165H257.191V166.632C258.583 165.672 260.047 165.04 261.583 164.736V166.56C260.911 166.688 260.207 166.888 259.471 167.16C258.751 167.432 258.199 167.672 257.815 167.88L257.215 168.192V177H255.415ZM272.357 175.512L273.053 175.44L273.101 176.856C271.277 177.112 269.717 177.24 268.421 177.24C266.693 177.24 265.469 176.744 264.749 175.752C264.029 174.744 263.669 173.184 263.669 171.072C263.669 166.864 265.341 164.76 268.685 164.76C270.301 164.76 271.509 165.216 272.309 166.128C273.109 167.024 273.509 168.44 273.509 170.376L273.413 171.744H265.493C265.493 173.072 265.733 174.056 266.213 174.696C266.693 175.336 267.525 175.656 268.709 175.656C269.909 175.656 271.125 175.608 272.357 175.512ZM271.709 170.304C271.709 168.832 271.469 167.792 270.989 167.184C270.525 166.576 269.757 166.272 268.685 166.272C267.629 166.272 266.829 166.592 266.285 167.232C265.757 167.872 265.485 168.896 265.469 170.304H271.709ZM285.507 168.624V174.768C285.555 175.36 286.019 175.712 286.899 175.824L286.827 177.24C285.563 177.24 284.611 176.92 283.971 176.28C282.531 176.92 281.091 177.24 279.651 177.24C278.547 177.24 277.707 176.928 277.131 176.304C276.555 175.68 276.267 174.784 276.267 173.616C276.267 172.448 276.563 171.592 277.155 171.048C277.747 170.488 278.675 170.144 279.939 170.016L283.707 169.656V168.624C283.707 167.808 283.531 167.224 283.179 166.872C282.827 166.52 282.347 166.344 281.739 166.344C280.459 166.344 279.131 166.424 277.755 166.584L277.011 166.656L276.939 165.288C278.699 164.936 280.259 164.76 281.619 164.76C282.979 164.76 283.963 165.072 284.571 165.696C285.195 166.32 285.507 167.296 285.507 168.624ZM278.115 173.52C278.115 174.992 278.723 175.728 279.939 175.728C281.027 175.728 282.099 175.544 283.155 175.176L283.707 174.984V171.024L280.155 171.36C279.435 171.424 278.915 171.632 278.595 171.984C278.275 172.336 278.115 172.848 278.115 173.52Z" fill="white"/>
<path d="M458.508 120.768C458.508 123.2 458.828 124.952 459.468 126.024C460.108 127.08 461.34 127.608 463.164 127.608C465.004 127.608 466.236 127.088 466.86 126.048C467.5 125.008 467.82 123.264 467.82 120.816C467.82 118.368 467.492 116.584 466.836 115.464C466.18 114.344 464.948 113.784 463.14 113.784C461.348 113.784 460.124 114.344 459.468 115.464C458.828 116.568 458.508 118.336 458.508 120.768ZM469.74 120.816C469.74 123.776 469.268 125.92 468.324 127.248C467.38 128.576 465.66 129.24 463.164 129.24C460.684 129.24 458.972 128.56 458.028 127.2C457.084 125.84 456.612 123.704 456.612 120.792C456.612 117.864 457.092 115.696 458.052 114.288C459.012 112.864 460.716 112.152 463.164 112.152C465.612 112.152 467.316 112.856 468.276 114.264C469.252 115.672 469.74 117.856 469.74 120.816ZM473.536 134.328V117H475.312V117.864C476.528 117.128 477.728 116.76 478.912 116.76C480.432 116.76 481.536 117.248 482.224 118.224C482.912 119.184 483.256 120.776 483.256 123C483.256 125.224 482.848 126.824 482.032 127.8C481.232 128.76 479.896 129.24 478.024 129.24C477.048 129.24 476.152 129.152 475.336 128.976V134.328H473.536ZM478.648 118.368C478.168 118.368 477.648 118.448 477.088 118.608C476.544 118.768 476.112 118.928 475.792 119.088L475.336 119.328V127.416C476.472 127.592 477.336 127.68 477.928 127.68C479.224 127.68 480.128 127.312 480.64 126.576C481.168 125.84 481.432 124.64 481.432 122.976C481.432 121.312 481.192 120.128 480.712 119.424C480.248 118.72 479.56 118.368 478.648 118.368ZM493.058 118.56H489.242V124.296C489.242 125.672 489.338 126.576 489.53 127.008C489.738 127.44 490.218 127.656 490.97 127.656L493.106 127.512L493.226 129C492.154 129.176 491.338 129.264 490.778 129.264C489.53 129.264 488.666 128.96 488.186 128.352C487.706 127.744 487.466 126.584 487.466 124.872V118.56H485.762V117H487.466V113.328H489.242V117H493.058V118.56ZM495.976 129V117H497.776V129H495.976ZM495.976 114.288V112.2H497.776V114.288H495.976ZM503.746 129H501.946V117H503.722V117.84C504.922 117.12 506.09 116.76 507.226 116.76C508.714 116.76 509.754 117.168 510.346 117.984C510.874 117.664 511.554 117.384 512.386 117.144C513.234 116.888 513.978 116.76 514.618 116.76C516.218 116.76 517.29 117.192 517.834 118.056C518.394 118.904 518.674 120.44 518.674 122.664V129H516.874V122.712C516.874 121.048 516.714 119.912 516.394 119.304C516.074 118.68 515.394 118.368 514.354 118.368C513.826 118.368 513.282 118.448 512.722 118.608C512.162 118.752 511.73 118.896 511.426 119.04L510.97 119.256C511.178 119.784 511.282 120.952 511.282 122.76V129H509.482V122.808C509.482 121.08 509.322 119.912 509.002 119.304C508.698 118.68 508.018 118.368 506.962 118.368C506.45 118.368 505.922 118.448 505.378 118.608C504.85 118.752 504.442 118.896 504.154 119.04L503.746 119.256V129ZM522.729 129V117H524.529V129H522.729ZM522.729 114.288V112.2H524.529V114.288H522.729ZM532.467 118.368C530.723 118.368 529.851 118.976 529.851 120.192C529.851 120.752 530.051 121.152 530.451 121.392C530.851 121.616 531.763 121.856 533.187 122.112C534.611 122.352 535.619 122.696 536.211 123.144C536.803 123.592 537.099 124.432 537.099 125.664C537.099 126.896 536.699 127.8 535.899 128.376C535.115 128.952 533.963 129.24 532.443 129.24C531.451 129.24 530.283 129.128 528.939 128.904L528.219 128.784L528.315 127.224C530.139 127.496 531.515 127.632 532.443 127.632C533.371 127.632 534.075 127.488 534.555 127.2C535.051 126.896 535.299 126.4 535.299 125.712C535.299 125.008 535.091 124.536 534.675 124.296C534.259 124.04 533.347 123.8 531.939 123.576C530.531 123.352 529.531 123.024 528.939 122.592C528.347 122.16 528.051 121.36 528.051 120.192C528.051 119.024 528.459 118.16 529.275 117.6C530.107 117.04 531.139 116.76 532.371 116.76C533.347 116.76 534.571 116.872 536.043 117.096L536.715 117.216L536.667 118.752C534.891 118.496 533.491 118.368 532.467 118.368ZM540.575 129V117H542.375V129H540.575ZM540.575 114.288V112.2H542.375V114.288H540.575ZM548.345 129H546.545V117H548.321V117.84C549.617 117.12 550.857 116.76 552.041 116.76C553.641 116.76 554.713 117.192 555.257 118.056C555.817 118.92 556.097 120.456 556.097 122.664V129H554.321V122.712C554.321 121.048 554.153 119.912 553.817 119.304C553.497 118.68 552.801 118.368 551.729 118.368C551.217 118.368 550.673 118.448 550.097 118.608C549.537 118.752 549.105 118.896 548.801 119.04L548.345 119.256V129ZM564.788 134.64C562.868 134.64 561.524 134.376 560.756 133.848C560.004 133.336 559.628 132.392 559.628 131.016C559.628 130.36 559.772 129.824 560.06 129.408C560.348 129.008 560.836 128.552 561.524 128.04C561.076 127.736 560.852 127.184 560.852 126.384C560.852 126.112 561.052 125.608 561.452 124.872L561.668 124.488C560.404 123.912 559.772 122.704 559.772 120.864C559.772 118.128 561.268 116.76 564.26 116.76C565.028 116.76 565.74 116.84 566.396 117L566.756 117.072L570.308 116.976V118.512L568.028 118.464C568.556 118.992 568.82 119.792 568.82 120.864C568.82 122.368 568.444 123.424 567.692 124.032C566.956 124.624 565.788 124.92 564.188 124.92C563.756 124.92 563.364 124.888 563.012 124.824C562.724 125.528 562.58 125.984 562.58 126.192C562.58 126.688 562.732 127 563.036 127.128C563.34 127.24 564.26 127.296 565.796 127.296C567.332 127.296 568.436 127.536 569.108 128.016C569.78 128.496 570.116 129.432 570.116 130.824C570.116 133.368 568.34 134.64 564.788 134.64ZM561.404 130.872C561.404 131.72 561.636 132.304 562.1 132.624C562.58 132.96 563.452 133.128 564.716 133.128C565.996 133.128 566.908 132.952 567.452 132.6C568.012 132.248 568.292 131.656 568.292 130.824C568.292 130.008 568.092 129.48 567.692 129.24C567.292 129 566.508 128.88 565.34 128.88L562.748 128.76C562.22 129.144 561.86 129.48 561.668 129.768C561.492 130.056 561.404 130.424 561.404 130.872ZM561.572 120.864C561.572 121.808 561.78 122.48 562.196 122.88C562.628 123.28 563.332 123.48 564.308 123.48C565.284 123.48 565.98 123.28 566.396 122.88C566.812 122.48 567.02 121.808 567.02 120.864C567.02 119.904 566.812 119.224 566.396 118.824C565.98 118.424 565.284 118.224 564.308 118.224C563.332 118.224 562.628 118.432 562.196 118.848C561.78 119.248 561.572 119.92 561.572 120.864ZM472.219 150.56V161H470.419V150.56H468.907V149H470.419V147.92C470.419 146.224 470.659 145.072 471.139 144.464C471.619 143.84 472.459 143.528 473.659 143.528L476.083 143.696L476.059 145.184C475.163 145.152 474.419 145.136 473.827 145.136C473.251 145.136 472.835 145.328 472.579 145.712C472.339 146.096 472.219 146.84 472.219 147.944V149H475.699V150.56H472.219ZM478.58 161V149H480.38V161H478.58ZM478.58 146.288V144.2H480.38V146.288H478.58ZM486.35 161H484.55V149H486.326V149.84C487.622 149.12 488.862 148.76 490.046 148.76C491.646 148.76 492.718 149.192 493.262 150.056C493.822 150.92 494.102 152.456 494.102 154.664V161H492.326V154.712C492.326 153.048 492.158 151.912 491.822 151.304C491.502 150.68 490.806 150.368 489.734 150.368C489.222 150.368 488.678 150.448 488.102 150.608C487.542 150.752 487.11 150.896 486.806 151.04L486.35 151.256V161ZM506.633 152.624V158.768C506.681 159.36 507.145 159.712 508.025 159.824L507.953 161.24C506.689 161.24 505.737 160.92 505.097 160.28C503.657 160.92 502.217 161.24 500.777 161.24C499.673 161.24 498.833 160.928 498.257 160.304C497.681 159.68 497.393 158.784 497.393 157.616C497.393 156.448 497.689 155.592 498.281 155.048C498.873 154.488 499.801 154.144 501.065 154.016L504.833 153.656V152.624C504.833 151.808 504.657 151.224 504.305 150.872C503.953 150.52 503.473 150.344 502.865 150.344C501.585 150.344 500.257 150.424 498.881 150.584L498.137 150.656L498.065 149.288C499.825 148.936 501.385 148.76 502.745 148.76C504.105 148.76 505.089 149.072 505.697 149.696C506.321 150.32 506.633 151.296 506.633 152.624ZM499.241 157.52C499.241 158.992 499.849 159.728 501.065 159.728C502.153 159.728 503.225 159.544 504.281 159.176L504.833 158.984V155.024L501.281 155.36C500.561 155.424 500.041 155.632 499.721 155.984C499.401 156.336 499.241 156.848 499.241 157.52ZM512.704 161H510.904V149H512.68V149.84C513.976 149.12 515.216 148.76 516.4 148.76C518 148.76 519.072 149.192 519.616 150.056C520.176 150.92 520.456 152.456 520.456 154.664V161H518.68V154.712C518.68 153.048 518.512 151.912 518.176 151.304C517.856 150.68 517.16 150.368 516.088 150.368C515.576 150.368 515.032 150.448 514.456 150.608C513.896 150.752 513.464 150.896 513.16 151.04L512.704 151.256V161ZM529.003 148.76C529.531 148.76 530.427 148.856 531.691 149.048L532.267 149.12L532.195 150.584C530.915 150.44 529.971 150.368 529.363 150.368C528.003 150.368 527.075 150.696 526.579 151.352C526.099 151.992 525.859 153.192 525.859 154.952C525.859 156.696 526.083 157.912 526.531 158.6C526.995 159.288 527.947 159.632 529.387 159.632L532.219 159.416L532.291 160.904C530.803 161.128 529.691 161.24 528.955 161.24C527.083 161.24 525.787 160.76 525.067 159.8C524.363 158.84 524.011 157.224 524.011 154.952C524.011 152.664 524.395 151.064 525.163 150.152C525.931 149.224 527.211 148.76 529.003 148.76ZM543.708 159.512L544.404 159.44L544.452 160.856C542.628 161.112 541.068 161.24 539.772 161.24C538.044 161.24 536.82 160.744 536.1 159.752C535.38 158.744 535.02 157.184 535.02 155.072C535.02 150.864 536.692 148.76 540.036 148.76C541.652 148.76 542.86 149.216 543.66 150.128C544.46 151.024 544.86 152.44 544.86 154.376L544.764 155.744H536.844C536.844 157.072 537.084 158.056 537.564 158.696C538.044 159.336 538.876 159.656 540.06 159.656C541.26 159.656 542.476 159.608 543.708 159.512ZM543.06 154.304C543.06 152.832 542.82 151.792 542.34 151.184C541.876 150.576 541.108 150.272 540.036 150.272C538.98 150.272 538.18 150.592 537.636 151.232C537.108 151.872 536.836 152.896 536.82 154.304H543.06ZM552.153 150.368C550.409 150.368 549.537 150.976 549.537 152.192C549.537 152.752 549.737 153.152 550.137 153.392C550.537 153.616 551.449 153.856 552.873 154.112C554.297 154.352 555.305 154.696 555.897 155.144C556.489 155.592 556.785 156.432 556.785 157.664C556.785 158.896 556.385 159.8 555.585 160.376C554.801 160.952 553.649 161.24 552.129 161.24C551.137 161.24 549.969 161.128 548.625 160.904L547.905 160.784L548.001 159.224C549.825 159.496 551.201 159.632 552.129 159.632C553.057 159.632 553.761 159.488 554.241 159.2C554.737 158.896 554.985 158.4 554.985 157.712C554.985 157.008 554.777 156.536 554.361 156.296C553.945 156.04 553.033 155.8 551.625 155.576C550.217 155.352 549.217 155.024 548.625 154.592C548.033 154.16 547.737 153.36 547.737 152.192C547.737 151.024 548.145 150.16 548.961 149.6C549.793 149.04 550.825 148.76 552.057 148.76C553.033 148.76 554.257 148.872 555.729 149.096L556.401 149.216L556.353 150.752C554.577 150.496 553.177 150.368 552.153 150.368Z" fill="white"/>
<path d="M339.345 333H333.417V316.392H339.345C342.049 316.392 343.841 317.464 344.721 319.608C345.233 320.84 345.489 322.456 345.489 324.456C345.489 328.632 344.449 331.264 342.369 332.352C341.537 332.784 340.529 333 339.345 333ZM343.593 324.456C343.593 321.272 342.881 319.288 341.457 318.504C340.881 318.184 340.177 318.024 339.345 318.024H335.265V331.368H339.345C342.177 331.368 343.593 329.064 343.593 324.456ZM357.454 331.512L358.15 331.44L358.198 332.856C356.374 333.112 354.814 333.24 353.518 333.24C351.79 333.24 350.566 332.744 349.846 331.752C349.126 330.744 348.766 329.184 348.766 327.072C348.766 322.864 350.438 320.76 353.782 320.76C355.398 320.76 356.606 321.216 357.406 322.128C358.206 323.024 358.606 324.44 358.606 326.376L358.51 327.744H350.59C350.59 329.072 350.83 330.056 351.31 330.696C351.79 331.336 352.622 331.656 353.806 331.656C355.006 331.656 356.222 331.608 357.454 331.512ZM356.806 326.304C356.806 324.832 356.566 323.792 356.086 323.184C355.622 322.576 354.854 322.272 353.782 322.272C352.726 322.272 351.926 322.592 351.382 323.232C350.854 323.872 350.582 324.896 350.566 326.304H356.806ZM362.035 327.24V325.56H369.307V327.24H362.035ZM373.375 333V321H375.151V322.632C376.543 321.672 378.007 321.04 379.543 320.736V322.56C378.871 322.688 378.167 322.888 377.431 323.16C376.711 323.432 376.159 323.672 375.775 323.88L375.175 324.192V333H373.375ZM382.391 333V321H384.191V333H382.391ZM382.391 318.288V316.2H384.191V318.288H382.391ZM392.129 322.368C390.385 322.368 389.513 322.976 389.513 324.192C389.513 324.752 389.713 325.152 390.113 325.392C390.513 325.616 391.425 325.856 392.849 326.112C394.273 326.352 395.281 326.696 395.873 327.144C396.465 327.592 396.761 328.432 396.761 329.664C396.761 330.896 396.361 331.8 395.561 332.376C394.777 332.952 393.625 333.24 392.105 333.24C391.113 333.24 389.945 333.128 388.601 332.904L387.881 332.784L387.977 331.224C389.801 331.496 391.177 331.632 392.105 331.632C393.033 331.632 393.737 331.488 394.217 331.2C394.713 330.896 394.961 330.4 394.961 329.712C394.961 329.008 394.753 328.536 394.337 328.296C393.921 328.04 393.009 327.8 391.601 327.576C390.193 327.352 389.193 327.024 388.601 326.592C388.009 326.16 387.713 325.36 387.713 324.192C387.713 323.024 388.121 322.16 388.937 321.6C389.769 321.04 390.801 320.76 392.033 320.76C393.009 320.76 394.233 320.872 395.705 321.096L396.377 321.216L396.329 322.752C394.553 322.496 393.153 322.368 392.129 322.368ZM402.038 333H400.238V315.768H402.038V325.944L403.91 325.848L407.342 321H409.382L405.47 326.52L409.55 333H407.51L403.934 327.432L402.038 327.504V333ZM412.442 333V321H414.242V333H412.442ZM412.442 318.288V316.2H414.242V318.288H412.442ZM420.212 333H418.412V321H420.188V321.84C421.484 321.12 422.724 320.76 423.908 320.76C425.508 320.76 426.58 321.192 427.124 322.056C427.684 322.92 427.964 324.456 427.964 326.664V333H426.188V326.712C426.188 325.048 426.02 323.912 425.684 323.304C425.364 322.68 424.668 322.368 423.596 322.368C423.084 322.368 422.54 322.448 421.964 322.608C421.404 322.752 420.972 322.896 420.668 323.04L420.212 323.256V333ZM436.655 338.64C434.735 338.64 433.391 338.376 432.623 337.848C431.871 337.336 431.495 336.392 431.495 335.016C431.495 334.36 431.639 333.824 431.927 333.408C432.215 333.008 432.703 332.552 433.391 332.04C432.943 331.736 432.719 331.184 432.719 330.384C432.719 330.112 432.919 329.608 433.319 328.872L433.535 328.488C432.271 327.912 431.639 326.704 431.639 324.864C431.639 322.128 433.135 320.76 436.127 320.76C436.895 320.76 437.607 320.84 438.263 321L438.623 321.072L442.175 320.976V322.512L439.895 322.464C440.423 322.992 440.687 323.792 440.687 324.864C440.687 326.368 440.311 327.424 439.559 328.032C438.823 328.624 437.655 328.92 436.055 328.92C435.623 328.92 435.231 328.888 434.879 328.824C434.591 329.528 434.447 329.984 434.447 330.192C434.447 330.688 434.599 331 434.903 331.128C435.207 331.24 436.127 331.296 437.663 331.296C439.199 331.296 440.303 331.536 440.975 332.016C441.647 332.496 441.983 333.432 441.983 334.824C441.983 337.368 440.207 338.64 436.655 338.64ZM433.271 334.872C433.271 335.72 433.503 336.304 433.967 336.624C434.447 336.96 435.319 337.128 436.583 337.128C437.863 337.128 438.775 336.952 439.319 336.6C439.879 336.248 440.159 335.656 440.159 334.824C440.159 334.008 439.959 333.48 439.559 333.24C439.159 333 438.375 332.88 437.207 332.88L434.615 332.76C434.087 333.144 433.727 333.48 433.535 333.768C433.359 334.056 433.271 334.424 433.271 334.872ZM433.439 324.864C433.439 325.808 433.647 326.48 434.063 326.88C434.495 327.28 435.199 327.48 436.175 327.48C437.151 327.48 437.847 327.28 438.263 326.88C438.679 326.48 438.887 325.808 438.887 324.864C438.887 323.904 438.679 323.224 438.263 322.824C437.847 322.424 437.151 322.224 436.175 322.224C435.199 322.224 434.495 322.432 434.063 322.848C433.647 323.248 433.439 323.92 433.439 324.864ZM320.224 352.76C320.752 352.76 321.648 352.856 322.912 353.048L323.488 353.12L323.416 354.584C322.136 354.44 321.192 354.368 320.584 354.368C319.224 354.368 318.296 354.696 317.8 355.352C317.32 355.992 317.08 357.192 317.08 358.952C317.08 360.696 317.304 361.912 317.752 362.6C318.216 363.288 319.168 363.632 320.608 363.632L323.44 363.416L323.512 364.904C322.024 365.128 320.912 365.24 320.176 365.24C318.304 365.24 317.008 364.76 316.288 363.8C315.584 362.84 315.232 361.224 315.232 358.952C315.232 356.664 315.616 355.064 316.384 354.152C317.152 353.224 318.432 352.76 320.224 352.76ZM326.241 358.976C326.241 356.784 326.633 355.2 327.417 354.224C328.201 353.248 329.521 352.76 331.377 352.76C333.249 352.76 334.569 353.248 335.337 354.224C336.121 355.2 336.513 356.784 336.513 358.976C336.513 361.168 336.145 362.76 335.409 363.752C334.673 364.744 333.329 365.24 331.377 365.24C329.425 365.24 328.081 364.744 327.345 363.752C326.609 362.76 326.241 361.168 326.241 358.976ZM328.089 358.952C328.089 360.696 328.297 361.92 328.713 362.624C329.145 363.328 330.033 363.68 331.377 363.68C332.737 363.68 333.625 363.336 334.041 362.648C334.457 361.944 334.665 360.712 334.665 358.952C334.665 357.192 334.433 355.984 333.969 355.328C333.505 354.656 332.641 354.32 331.377 354.32C330.129 354.32 329.265 354.656 328.785 355.328C328.321 355.984 328.089 357.192 328.089 358.952ZM341.968 365H340.168V353H341.944V353.84C343.24 353.12 344.48 352.76 345.664 352.76C347.264 352.76 348.336 353.192 348.88 354.056C349.44 354.92 349.72 356.456 349.72 358.664V365H347.944V358.712C347.944 357.048 347.776 355.912 347.44 355.304C347.12 354.68 346.424 354.368 345.352 354.368C344.84 354.368 344.296 354.448 343.72 354.608C343.16 354.752 342.728 354.896 342.424 355.04L341.968 355.256V365ZM357.547 354.368C355.803 354.368 354.931 354.976 354.931 356.192C354.931 356.752 355.131 357.152 355.531 357.392C355.931 357.616 356.843 357.856 358.267 358.112C359.691 358.352 360.699 358.696 361.291 359.144C361.883 359.592 362.179 360.432 362.179 361.664C362.179 362.896 361.779 363.8 360.979 364.376C360.195 364.952 359.043 365.24 357.523 365.24C356.531 365.24 355.363 365.128 354.019 364.904L353.299 364.784L353.395 363.224C355.219 363.496 356.595 363.632 357.523 363.632C358.451 363.632 359.155 363.488 359.635 363.2C360.131 362.896 360.379 362.4 360.379 361.712C360.379 361.008 360.171 360.536 359.755 360.296C359.339 360.04 358.427 359.8 357.019 359.576C355.611 359.352 354.611 359.024 354.019 358.592C353.427 358.16 353.131 357.36 353.131 356.192C353.131 355.024 353.539 354.16 354.355 353.6C355.187 353.04 356.219 352.76 357.451 352.76C358.427 352.76 359.651 352.872 361.123 353.096L361.795 353.216L361.747 354.752C359.971 354.496 358.571 354.368 357.547 354.368ZM371.871 354.56H368.055V360.296C368.055 361.672 368.151 362.576 368.343 363.008C368.551 363.44 369.031 363.656 369.783 363.656L371.919 363.512L372.039 365C370.967 365.176 370.151 365.264 369.591 365.264C368.343 365.264 367.479 364.96 366.999 364.352C366.519 363.744 366.279 362.584 366.279 360.872V354.56H364.575V353H366.279V349.328H368.055V353H371.871V354.56ZM374.789 365V353H376.565V354.632C377.957 353.672 379.421 353.04 380.957 352.736V354.56C380.285 354.688 379.581 354.888 378.845 355.16C378.125 355.432 377.573 355.672 377.189 355.88L376.589 356.192V365H374.789ZM391.294 353H393.094V365H391.294V364.16C390.094 364.88 388.91 365.24 387.742 365.24C386.11 365.24 385.022 364.816 384.478 363.968C383.95 363.12 383.686 361.552 383.686 359.264V353H385.486V359.24C385.486 360.984 385.638 362.152 385.942 362.744C386.246 363.336 386.934 363.632 388.006 363.632C388.534 363.632 389.07 363.56 389.614 363.416C390.158 363.256 390.574 363.104 390.862 362.96L391.294 362.744V353ZM401.764 352.76C402.292 352.76 403.188 352.856 404.452 353.048L405.028 353.12L404.956 354.584C403.676 354.44 402.732 354.368 402.124 354.368C400.764 354.368 399.836 354.696 399.34 355.352C398.86 355.992 398.62 357.192 398.62 358.952C398.62 360.696 398.844 361.912 399.292 362.6C399.756 363.288 400.708 363.632 402.148 363.632L404.98 363.416L405.052 364.904C403.564 365.128 402.452 365.24 401.716 365.24C399.844 365.24 398.548 364.76 397.828 363.8C397.124 362.84 396.772 361.224 396.772 358.952C396.772 356.664 397.156 355.064 397.924 354.152C398.692 353.224 399.972 352.76 401.764 352.76ZM414.665 354.56H410.849V360.296C410.849 361.672 410.945 362.576 411.137 363.008C411.345 363.44 411.825 363.656 412.577 363.656L414.713 363.512L414.833 365C413.761 365.176 412.945 365.264 412.385 365.264C411.137 365.264 410.273 364.96 409.793 364.352C409.313 363.744 409.073 362.584 409.073 360.872V354.56H407.369V353H409.073V349.328H410.849V353H414.665V354.56ZM417.583 365V353H419.383V365H417.583ZM417.583 350.288V348.2H419.383V350.288H417.583ZM423.025 358.976C423.025 356.784 423.417 355.2 424.201 354.224C424.985 353.248 426.305 352.76 428.161 352.76C430.033 352.76 431.353 353.248 432.121 354.224C432.905 355.2 433.297 356.784 433.297 358.976C433.297 361.168 432.929 362.76 432.193 363.752C431.457 364.744 430.113 365.24 428.161 365.24C426.209 365.24 424.865 364.744 424.129 363.752C423.393 362.76 423.025 361.168 423.025 358.976ZM424.873 358.952C424.873 360.696 425.081 361.92 425.497 362.624C425.929 363.328 426.817 363.68 428.161 363.68C429.521 363.68 430.409 363.336 430.825 362.648C431.241 361.944 431.449 360.712 431.449 358.952C431.449 357.192 431.217 355.984 430.753 355.328C430.289 354.656 429.425 354.32 428.161 354.32C426.913 354.32 426.049 354.656 425.569 355.328C425.105 355.984 424.873 357.192 424.873 358.952ZM438.753 365H436.953V353H438.729V353.84C440.025 353.12 441.265 352.76 442.449 352.76C444.049 352.76 445.121 353.192 445.665 354.056C446.225 354.92 446.505 356.456 446.505 358.664V365H444.729V358.712C444.729 357.048 444.561 355.912 444.225 355.304C443.905 354.68 443.209 354.368 442.137 354.368C441.625 354.368 441.081 354.448 440.505 354.608C439.945 354.752 439.513 354.896 439.209 355.04L438.753 355.256V365ZM454.332 354.368C452.588 354.368 451.716 354.976 451.716 356.192C451.716 356.752 451.916 357.152 452.316 357.392C452.716 357.616 453.628 357.856 455.052 358.112C456.476 358.352 457.484 358.696 458.076 359.144C458.668 359.592 458.964 360.432 458.964 361.664C458.964 362.896 458.564 363.8 457.764 364.376C456.98 364.952 455.828 365.24 454.308 365.24C453.316 365.24 452.148 365.128 450.804 364.904L450.084 364.784L450.18 363.224C452.004 363.496 453.38 363.632 454.308 363.632C455.236 363.632 455.94 363.488 456.42 363.2C456.916 362.896 457.164 362.4 457.164 361.712C457.164 361.008 456.956 360.536 456.54 360.296C456.124 360.04 455.212 359.8 453.804 359.576C452.396 359.352 451.396 359.024 450.804 358.592C450.212 358.16 449.916 357.36 449.916 356.192C449.916 355.024 450.324 354.16 451.14 353.6C451.972 353.04 453.004 352.76 454.236 352.76C455.212 352.76 456.436 352.872 457.908 353.096L458.58 353.216L458.532 354.752C456.756 354.496 455.356 354.368 454.332 354.368Z" fill="white"/>
<path d="M11.472 341.392H13.392L9.048 358H4.92L0.576 341.392H2.496L6.312 356.368H7.656L11.472 341.392ZM24.2325 349.624V355.768C24.2805 356.36 24.7445 356.712 25.6245 356.824L25.5525 358.24C24.2885 358.24 23.3365 357.92 22.6965 357.28C21.2565 357.92 19.8165 358.24 18.3765 358.24C17.2725 358.24 16.4325 357.928 15.8565 357.304C15.2805 356.68 14.9925 355.784 14.9925 354.616C14.9925 353.448 15.2885 352.592 15.8805 352.048C16.4725 351.488 17.4005 351.144 18.6645 351.016L22.4325 350.656V349.624C22.4325 348.808 22.2565 348.224 21.9045 347.872C21.5525 347.52 21.0725 347.344 20.4645 347.344C19.1845 347.344 17.8565 347.424 16.4805 347.584L15.7365 347.656L15.6645 346.288C17.4245 345.936 18.9845 345.76 20.3445 345.76C21.7045 345.76 22.6885 346.072 23.2965 346.696C23.9205 347.32 24.2325 348.296 24.2325 349.624ZM16.8405 354.52C16.8405 355.992 17.4485 356.728 18.6645 356.728C19.7525 356.728 20.8245 356.544 21.8805 356.176L22.4325 355.984V352.024L18.8805 352.36C18.1605 352.424 17.6405 352.632 17.3205 352.984C17.0005 353.336 16.8405 353.848 16.8405 354.52ZM28.6479 358V340.768H30.4479V358H28.6479ZM42.2666 346H44.0666V358H42.2666V357.16C41.0666 357.88 39.8826 358.24 38.7146 358.24C37.0826 358.24 35.9946 357.816 35.4506 356.968C34.9226 356.12 34.6586 354.552 34.6586 352.264V346H36.4586V352.24C36.4586 353.984 36.6106 355.152 36.9146 355.744C37.2186 356.336 37.9066 356.632 38.9786 356.632C39.5066 356.632 40.0426 356.56 40.5866 356.416C41.1306 356.256 41.5466 356.104 41.8346 355.96L42.2666 355.744V346ZM56.4086 356.512L57.1046 356.44L57.1526 357.856C55.3286 358.112 53.7686 358.24 52.4726 358.24C50.7446 358.24 49.5206 357.744 48.8006 356.752C48.0806 355.744 47.7206 354.184 47.7206 352.072C47.7206 347.864 49.3926 345.76 52.7366 345.76C54.3526 345.76 55.5606 346.216 56.3606 347.128C57.1606 348.024 57.5606 349.44 57.5606 351.376L57.4646 352.744H49.5446C49.5446 354.072 49.7846 355.056 50.2646 355.696C50.7446 356.336 51.5766 356.656 52.7606 356.656C53.9606 356.656 55.1766 356.608 56.4086 356.512ZM55.7606 351.304C55.7606 349.832 55.5206 348.792 55.0406 348.184C54.5766 347.576 53.8086 347.272 52.7366 347.272C51.6806 347.272 50.8806 347.592 50.3366 348.232C49.8086 348.872 49.5366 349.896 49.5206 351.304H55.7606ZM66.3832 343.024V341.392H77.1833V343.552L68.4952 355.888V356.368H77.1833V358.024H66.3832V355.888L75.0473 343.552V343.024H66.3832ZM80.9784 358V341.392H91.0824V343.024H82.8264V348.76H89.6424V350.368H82.8264V356.368H91.0824V358H80.9784ZM100.892 358H94.9641V341.392H100.892C103.596 341.392 105.388 342.464 106.268 344.608C106.78 345.84 107.036 347.456 107.036 349.456C107.036 353.632 105.996 356.264 103.916 357.352C103.084 357.784 102.076 358 100.892 358ZM105.14 349.456C105.14 346.272 104.428 344.288 103.004 343.504C102.428 343.184 101.724 343.024 100.892 343.024H96.8121V356.368H100.892C103.724 356.368 105.14 354.064 105.14 349.456ZM1.728 395.328V378H3.504V378.864C4.72 378.128 5.92 377.76 7.104 377.76C8.624 377.76 9.728 378.248 10.416 379.224C11.104 380.184 11.448 381.776 11.448 384C11.448 386.224 11.04 387.824 10.224 388.8C9.424 389.76 8.088 390.24 6.216 390.24C5.24 390.24 4.344 390.152 3.528 389.976V395.328H1.728ZM6.84 379.368C6.36 379.368 5.84 379.448 5.28 379.608C4.736 379.768 4.304 379.928 3.984 380.088L3.528 380.328V388.416C4.664 388.592 5.528 388.68 6.12 388.68C7.416 388.68 8.32 388.312 8.832 387.576C9.36 386.84 9.624 385.64 9.624 383.976C9.624 382.312 9.384 381.128 8.904 380.424C8.44 379.72 7.752 379.368 6.84 379.368ZM15.1043 390V378H16.8803V379.632C18.2723 378.672 19.7363 378.04 21.2723 377.736V379.56C20.6003 379.688 19.8963 379.888 19.1603 380.16C18.4403 380.432 17.8883 380.672 17.5043 380.88L16.9043 381.192V390H15.1043ZM23.3588 383.976C23.3588 381.784 23.7508 380.2 24.5348 379.224C25.3188 378.248 26.6388 377.76 28.4948 377.76C30.3668 377.76 31.6868 378.248 32.4548 379.224C33.2388 380.2 33.6308 381.784 33.6308 383.976C33.6308 386.168 33.2628 387.76 32.5268 388.752C31.7908 389.744 30.4468 390.24 28.4948 390.24C26.5428 390.24 25.1988 389.744 24.4628 388.752C23.7268 387.76 23.3588 386.168 23.3588 383.976ZM25.2068 383.952C25.2068 385.696 25.4148 386.92 25.8308 387.624C26.2628 388.328 27.1508 388.68 28.4948 388.68C29.8548 388.68 30.7428 388.336 31.1588 387.648C31.5748 386.944 31.7828 385.712 31.7828 383.952C31.7828 382.192 31.5508 380.984 31.0868 380.328C30.6228 379.656 29.7588 379.32 28.4948 379.32C27.2468 379.32 26.3828 379.656 25.9028 380.328C25.4388 380.984 25.2068 382.192 25.2068 383.952ZM35.9475 378H37.8675L40.6755 388.44H41.5635L44.4675 378H46.3155L42.9315 390H39.3315L35.9475 378ZM49.3502 390V378H51.1502V390H49.3502ZM49.3502 375.288V373.2H51.1502V375.288H49.3502ZM64.5362 372.768V390H62.7602V389.184C61.5282 389.888 60.3122 390.24 59.1122 390.24C58.4722 390.24 57.9122 390.16 57.4322 390C56.9522 389.84 56.5042 389.552 56.0882 389.136C55.2242 388.272 54.7922 386.68 54.7922 384.36C54.7922 382.024 55.1762 380.344 55.9442 379.32C56.7282 378.28 58.0162 377.76 59.8082 377.76C60.7362 377.76 61.7202 377.864 62.7602 378.072V372.768H64.5362ZM57.4802 387.84C57.7362 388.144 58.0082 388.352 58.2962 388.464C58.5842 388.576 58.9522 388.632 59.4002 388.632C59.8642 388.632 60.3762 388.56 60.9362 388.416C61.5122 388.256 61.9602 388.104 62.2802 387.96L62.7602 387.744V379.608C61.7362 379.416 60.7842 379.32 59.9042 379.32C58.6882 379.32 57.8402 379.712 57.3602 380.496C56.8802 381.264 56.6402 382.464 56.6402 384.096C56.6402 385.952 56.9202 387.2 57.4802 387.84ZM76.9033 388.512L77.5993 388.44L77.6473 389.856C75.8233 390.112 74.2633 390.24 72.9673 390.24C71.2393 390.24 70.0153 389.744 69.2953 388.752C68.5753 387.744 68.2153 386.184 68.2153 384.072C68.2153 379.864 69.8873 377.76 73.2313 377.76C74.8473 377.76 76.0553 378.216 76.8553 379.128C77.6553 380.024 78.0553 381.44 78.0553 383.376L77.9593 384.744H70.0393C70.0393 386.072 70.2793 387.056 70.7593 387.696C71.2393 388.336 72.0713 388.656 73.2553 388.656C74.4553 388.656 75.6713 388.608 76.9033 388.512ZM76.2553 383.304C76.2553 381.832 76.0153 380.792 75.5353 380.184C75.0713 379.576 74.3033 379.272 73.2313 379.272C72.1753 379.272 71.3753 379.592 70.8313 380.232C70.3033 380.872 70.0313 381.896 70.0153 383.304H76.2553ZM93.7899 379.56H89.9739V385.296C89.9739 386.672 90.0699 387.576 90.2619 388.008C90.4699 388.44 90.9499 388.656 91.7019 388.656L93.8379 388.512L93.9579 390C92.8859 390.176 92.0699 390.264 91.5099 390.264C90.2619 390.264 89.3979 389.96 88.9179 389.352C88.4379 388.744 88.1979 387.584 88.1979 385.872V379.56H86.4939V378H88.1979V374.328H89.9739V378H93.7899V379.56ZM96.18 383.976C96.18 381.784 96.572 380.2 97.356 379.224C98.14 378.248 99.46 377.76 101.316 377.76C103.188 377.76 104.508 378.248 105.276 379.224C106.06 380.2 106.452 381.784 106.452 383.976C106.452 386.168 106.084 387.76 105.348 388.752C104.612 389.744 103.268 390.24 101.316 390.24C99.364 390.24 98.02 389.744 97.284 388.752C96.548 387.76 96.18 386.168 96.18 383.976ZM98.028 383.952C98.028 385.696 98.236 386.92 98.652 387.624C99.084 388.328 99.972 388.68 101.316 388.68C102.676 388.68 103.564 388.336 103.98 387.648C104.396 386.944 104.604 385.712 104.604 383.952C104.604 382.192 104.372 380.984 103.908 380.328C103.444 379.656 102.58 379.32 101.316 379.32C100.068 379.32 99.204 379.656 98.724 380.328C98.26 380.984 98.028 382.192 98.028 383.952ZM120.589 377.76C121.117 377.76 122.013 377.856 123.277 378.048L123.853 378.12L123.781 379.584C122.501 379.44 121.557 379.368 120.949 379.368C119.589 379.368 118.661 379.696 118.165 380.352C117.685 380.992 117.445 382.192 117.445 383.952C117.445 385.696 117.669 386.912 118.117 387.6C118.581 388.288 119.533 388.632 120.973 388.632L123.805 388.416L123.877 389.904C122.389 390.128 121.277 390.24 120.541 390.24C118.669 390.24 117.373 389.76 116.653 388.8C115.949 387.84 115.597 386.224 115.597 383.952C115.597 381.664 115.981 380.064 116.749 379.152C117.517 378.224 118.797 377.76 120.589 377.76ZM127.418 390V372.768H129.218V390H127.418ZM133.549 390V378H135.349V390H133.549ZM133.549 375.288V373.2H135.349V375.288H133.549ZM147.679 388.512L148.375 388.44L148.423 389.856C146.599 390.112 145.039 390.24 143.743 390.24C142.015 390.24 140.791 389.744 140.071 388.752C139.351 387.744 138.991 386.184 138.991 384.072C138.991 379.864 140.663 377.76 144.007 377.76C145.623 377.76 146.831 378.216 147.631 379.128C148.431 380.024 148.831 381.44 148.831 383.376L148.735 384.744H140.815C140.815 386.072 141.055 387.056 141.535 387.696C142.015 388.336 142.847 388.656 144.031 388.656C145.231 388.656 146.447 388.608 147.679 388.512ZM147.031 383.304C147.031 381.832 146.791 380.792 146.311 380.184C145.847 379.576 145.079 379.272 144.007 379.272C142.951 379.272 142.151 379.592 141.607 380.232C141.079 380.872 140.807 381.896 140.791 383.304H147.031ZM154.156 390H152.356V378H154.132V378.84C155.428 378.12 156.668 377.76 157.852 377.76C159.452 377.76 160.524 378.192 161.068 379.056C161.628 379.92 161.908 381.456 161.908 383.664V390H160.132V383.712C160.132 382.048 159.964 380.912 159.628 380.304C159.308 379.68 158.612 379.368 157.54 379.368C157.028 379.368 156.484 379.448 155.908 379.608C155.348 379.752 154.916 379.896 154.612 380.04L154.156 380.256V390ZM172.112 379.56H168.296V385.296C168.296 386.672 168.392 387.576 168.584 388.008C168.792 388.44 169.272 388.656 170.024 388.656L172.16 388.512L172.28 390C171.208 390.176 170.392 390.264 169.832 390.264C168.584 390.264 167.72 389.96 167.24 389.352C166.76 388.744 166.52 387.584 166.52 385.872V379.56H164.816V378H166.52V374.328H168.296V378H172.112V379.56ZM178.799 379.368C177.055 379.368 176.183 379.976 176.183 381.192C176.183 381.752 176.383 382.152 176.783 382.392C177.183 382.616 178.095 382.856 179.519 383.112C180.943 383.352 181.951 383.696 182.543 384.144C183.135 384.592 183.431 385.432 183.431 386.664C183.431 387.896 183.031 388.8 182.231 389.376C181.447 389.952 180.295 390.24 178.775 390.24C177.783 390.24 176.615 390.128 175.271 389.904L174.551 389.784L174.647 388.224C176.471 388.496 177.847 388.632 178.775 388.632C179.703 388.632 180.407 388.488 180.887 388.2C181.383 387.896 181.631 387.4 181.631 386.712C181.631 386.008 181.423 385.536 181.007 385.296C180.591 385.04 179.679 384.8 178.271 384.576C176.863 384.352 175.863 384.024 175.271 383.592C174.679 383.16 174.383 382.36 174.383 381.192C174.383 380.024 174.791 379.16 175.607 378.6C176.439 378.04 177.471 377.76 178.703 377.76C179.679 377.76 180.903 377.872 182.375 378.096L183.047 378.216L182.999 379.752C181.223 379.496 179.823 379.368 178.799 379.368Z" fill="white"/>
</svg>
